# xmcd
#
# Track frame offsets:
#	150
#	15605
#	32080
#	49232
#	66160
#	80737
#	95767
#	113097
#	129010
#	146607
#	169755
#	188350
#	204415
#	219572
#	234977
#
# Disc length: 3377 seconds
#
# Revision: 0
# Processed by: cddbd v1.5.1PL0 Copyright (c) Steve Scherf et al.
# Submitted via: audiograbber 1.82.02
#
DISCID=c80d2f0f
DTITLE=Various Artist - Sound Choice 8833 Country Hits
DYEAR=1900
DGENRE=Karaoke
TTITLE0=Kenny Chesney - No shoes, no shirt, no problems
TTITLE1=Wynonna Judd - What the world needs
TTITLE2=Rachael Proctor - Days like this
TTITLE3=Deana Carter - I'm just a girl
TTITLE4=Clay Walker - A few Questions
TTITLE5=Dierks Bentley - What was I thinkin'
TTITLE6=Dwight Yoakam - The back of your hand
TTITLE7=Buddy Jewell - Help pour out the rain ( Lacey's Song )
TTITLE8=Dixie Chicks - Godspeed ( Sweet dreams )
TTITLE9=Rushlow - I can't be your friend
TTITLE10=Darryl Worley - I need a breather
TTITLE11=Pat Green - Wave on wave
TTITLE12=Sherrie Austin - Streets of heaven
TTITLE13=Billy Currington - Walk a little straighter
TTITLE14=Keith Urban - Who wouldn't wanna be me
EXTD=
EXTT0=
EXTT1=
EXTT2=
EXTT3=
EXTT4=
EXTT5=
EXTT6=
EXTT7=
EXTT8=
EXTT9=
EXTT10=
EXTT11=
EXTT12=
EXTT13=
EXTT14=
PLAYORDER=
